<svg id="Layer_12" data-name="Layer 12" xmlns="http://www.w3.org/2000/svg" viewBox="0 0 324.88 295.73"><defs><style>.cls-1{fill:#fff;}</style></defs><title>CHEMHUB_LOGO</title><path class="cls-1" d="M120.58,126.13c5.71-2.79,11.61-5.43,17.67-7.92l2.69-4.66c-5.95-1.58-11.7-2.88-17.21-3.88C122.52,114.87,121.46,120.36,120.58,126.13Z"/><path class="cls-1" d="M203.57,121.18a16.84,16.84,0,0,1-13.28-7.83c-1.93.4-3.87.84-5.82,1.3l2,3.54q9.33,4.11,18,8.63Q204.06,124,203.57,121.18Z"/><path class="cls-1" d="M196.07,134.75l11.07,19.17q-.35-7.11-1-13.84C202.86,138.25,199.49,136.48,196.07,134.75Z"/><path class="cls-1" d="M117.86,153.51l11.2-19.39c-3.46,1.62-6.86,3.27-10.11,5Q118.24,146.08,117.86,153.51Z"/><path class="cls-1" d="M226,186.59a183.39,183.39,0,0,0,21.85-16.45,193.9,193.9,0,0,0-30.28-23.25c.52,7.12.79,14.39.79,21.76,0,1.55,0,3.09,0,4.63Z"/><path class="cls-1" d="M115.75,97.55A165.89,165.89,0,0,1,121.8,79.9c4.25-10.33,9.18-18.76,14.6-25.12-2.25.52-4.47,1.12-6.67,1.76l-23.12,40Q111.1,96.94,115.75,97.55Z"/><path class="cls-1" d="M107.51,145.36a206,206,0,0,0-23.36,15.81,16.62,16.62,0,0,1,.8,13.3c4.4,3.65,9.25,7.29,14.52,10.89l7.19-12.46c0-1.46,0-2.91,0-4.38C106.62,160.68,106.93,152.93,107.51,145.36Z"/><path class="cls-1" d="M206,87.59a16.73,16.73,0,0,1,9.05,3.67L195,56.46c-2.2-.64-4.41-1.23-6.66-1.74,5.52,6.39,10.54,14.91,14.87,25.4C204.18,82.53,205.12,85,206,87.59Z"/><path class="cls-1" d="M116.79,243.08H72.5a117.1,117.1,0,0,0,58.84,38.17h4.24c-5.09-6.24-9.74-14.3-13.78-24.1C120,252.72,118.3,248,116.79,243.08Z"/><path class="cls-1" d="M220.65,109.3a16.92,16.92,0,0,1-6.65,9q1.34,7.34,2.28,15c15.59,9.14,28.94,19.12,39.45,29.25l.33-.35-30.66-53.1C223.83,109.17,222.25,109.22,220.65,109.3Z"/><path class="cls-1" d="M162.5,51.81c-1,0-2,.05-3,.08-12.4,2.44-24.92,19.69-33,47.35,6.54,1.21,13.25,2.77,20.06,4.64L162.38,76.4l16.43,28.45c3-.75,6-1.45,8.95-2.08a16.86,16.86,0,0,1,7.76-12.62C186.76,65.92,174.4,51.81,162.5,51.81Zm-.11,24.59h0Z"/><path class="cls-1" d="M137.29,43.47a127.51,127.51,0,0,1,21-2.45,26.79,26.79,0,0,1,4.17-.33v.26a127.83,127.83,0,0,1,24.94,2.45l-3-5.19h0L162.38,0,140.33,38.2h0Z"/><path class="cls-1" d="M41.46,209.45,0,281.26H102.26A128.4,128.4,0,0,1,41.46,209.45Z"/><path class="cls-1" d="M283.43,209.66c-.4,1.18-.8,2.37-1.23,3.54A16.83,16.83,0,0,1,269.39,241c-.55,0-1.09,0-1.63-.08a128.69,128.69,0,0,1-45,40.36h102Z"/><path class="cls-1" d="M270.78,207.34C270.3,199,265,188.8,255.42,178a195.16,195.16,0,0,1-24,18l18.69,32.37c1-.23,1.88-.48,2.78-.75a16.84,16.84,0,0,1,16.48-20.37C269.86,207.27,270.32,207.3,270.78,207.34Z"/><path class="cls-1" d="M54,212.07c2.87,6.65,10.55,11.47,21.91,14l18.12-31.39c-5.62-3.83-10.92-7.78-15.81-11.83a16.72,16.72,0,0,1-16.72.9c-7.65,10.51-10.47,20.12-7.85,27.4Z"/><path class="cls-1" d="M252.46,243.08H208.19c-1.51,4.94-3.17,9.68-5,14.12-4,9.78-8.68,17.83-13.77,24.06h4.22A117.07,117.07,0,0,0,252.46,243.08Z"/><path class="cls-1" d="M108.83,132.2A244.45,244.45,0,0,1,113.06,108c-4.34-.53-8.49-.87-12.46-1L74.21,152.72a17.18,17.18,0,0,1,2.19.85A226.39,226.39,0,0,1,108.83,132.2Z"/><path class="cls-1" d="M196.91,243.08H128.08c6.11,18.57,14.28,31.82,22.91,38.17h23C182.62,274.9,190.8,261.66,196.91,243.08Z"/><path class="cls-1" d="M162.5,294v-6.11c25.68,0,47.38-54.6,47.38-119.23S188.18,49.43,162.5,49.43V43.32c30,0,53.5,55.06,53.5,125.34S192.49,294,162.5,294Z"/><path class="cls-1" d="M97.23,236H95.17c-26-.38-43.27-8-48.6-21.5-10.89-27.54,31.49-69.26,96.5-95,30.66-12.13,61.47-18.61,86.75-18.23,26,.38,43.27,8,48.6,21.5s-2,30.86-20.75,48.93c-18.19,17.57-45.09,33.92-75.75,46C152.09,229.57,122.12,236,97.23,236Zm130.52-130c-24.3,0-53.65,6.33-82.94,17.92-30.09,11.9-56.44,27.9-74.2,45-17,16.4-24.14,32.35-19.63,43.76s20.64,18.15,44.25,18.49c24.67.38,54.84-6,84.93-17.9s56.44-27.9,74.2-45c17-16.4,24.14-32.35,19.63-43.76s-20.64-18.15-44.25-18.49Z"/><path class="cls-1" d="M162.5,293.32c-29.62,0-52.82-54.81-52.82-124.79S132.88,43.74,162.5,43.74V48.5C150.23,48.5,138,61,129,82.88c-9.41,22.84-14.59,53.26-14.59,85.65s5.18,62.81,14.59,85.65c9,21.85,21.2,34.38,33.47,34.38Z"/><path class="cls-1" d="M230.09,238.37c-24.52,0-55.94-7.1-88.59-21.24-64.15-27.78-105.17-70.84-93.4-98s71.24-26.7,135.39,1.08c30.2,13.08,56.52,30.35,74.12,48.63,18.05,18.74,24.81,36.4,19,49.73S253.71,238.37,230.09,238.37Zm-135-134.45c-22.43,0-37.9,6.18-42.62,17.08-4.87,11.26,1.76,27.43,18.21,44.36,17.2,17.7,43,34.54,72.71,47.4,60.63,26.26,118.45,28,128.9,3.89s-31.09-66.28-90.69-92.1C151.9,111.69,122,104.37,97.28,103.94Z"/><circle class="cls-1" cx="204.53" cy="104.37" r="13.13"/><path class="cls-1" d="M162.5,293.32A124.66,124.66,0,1,1,287.16,168.66,124.8,124.8,0,0,1,162.5,293.32Zm0-244.57A119.91,119.91,0,1,0,282.4,168.66,120,120,0,0,0,162.5,48.75Z"/><circle class="cls-1" cx="69.12" cy="168.75" r="13.13"/><circle class="cls-1" cx="269.39" cy="224.13" r="13.13"/><rect class="cls-1" x="0.12" y="289.04" width="324.76" height="6.68"/><circle class="cls-1" cx="162.46" cy="170.65" r="21.74"/></svg>